# xmcd
#
# Track frame offsets:
#	150
#	15568
#	30875
#	46255
#	61134
#
# Disc length: 1021 seconds
#
# Revision: 0
# Processed by: cddbd v1.5.1PL0 Copyright (c) Steve Scherf et al.
# Submitted via: audiograbber 1.83.01
#
DISCID=2c03fb05
DTITLE=J Bigga - Your Mom is a MILF
DYEAR=2005
DGENRE=Comedy
TTITLE0=Your Mom is a MILF
TTITLE1=No Radio
TTITLE2=Dont be Afraid to Bite (ft Shock)
TTITLE3=Just Get Naked Naked Naked Naked
TTITLE4=Your Mom is a MILF (Clean Edit)
EXTD=
EXTT0=
EXTT1=
EXTT2=
EXTT3=
EXTT4=
PLAYORDER=
